# xmcd
#
# Track frame offsets:
#	150
#	17723
#	31921
#	46572
#	64948
#	81608
#	100512
#	117206
#	133438
#	148110
#	164150
#	181510
#	200071
#
# Disc length: 2874 seconds
#
# Revision: 1
# Processed by: cddbd v1.5.2PL0 Copyright (c) Steve Scherf et al.
# Submitted via: audiograbber 1.83.01
#
DISCID=b70b380d
DTITLE=Brian Cadd and Russell Morris - Wild Bulls and Horses
DYEAR=2011
DGENRE=Country
TTITLE0=I'm In Love Again
TTITLE1=Rodeo Girls
TTITLE2=Big Red Sunset
TTITLE3=Last To Know
TTITLE4=Wild Bulls And Horses
TTITLE5=All The Young Ladies
TTITLE6=She Left Too Soon
TTITLE7=Camels Back
TTITLE8=The Man Who Wasn't There
TTITLE9=Way With Me
TTITLE10=Heart Highway
TTITLE11=One More Night
TTITLE12=The Wheel
EXTD=
EXTT0=
EXTT1=
EXTT2=
EXTT3=
EXTT4=
EXTT5=
EXTT6=
EXTT7=
EXTT8=
EXTT9=
EXTT10=
EXTT11=
EXTT12=
PLAYORDER=
